<?xml version="1.0" encoding="utf-8"?>
<!-- Generator: Adobe Illustrator 16.0.0, SVG Export Plug-In . SVG Version: 6.00 Build 0)  -->
<!DOCTYPE svg PUBLIC "-//W3C//DTD SVG 1.1//EN" "http://www.w3.org/Graphics/SVG/1.1/DTD/svg11.dtd">
<svg version="1.1" id="Layer_1" xmlns="http://www.w3.org/2000/svg" xmlns:xlink="http://www.w3.org/1999/xlink" x="0px" y="0px"
	 width="285px" height="249px" viewBox="0 0 285 249" enable-background="new 0 0 285 249" xml:space="preserve">
<rect x="46.5" y="66" fill="#FFFFFF" width="144" height="144"/>
<rect x="47" y="66.5" fill="none" stroke="#000000" stroke-linecap="round" stroke-linejoin="round" stroke-miterlimit="10" width="144" height="144"/>
<rect x="46.5" y="21" opacity="0.207" fill="#4BBD3B" enable-background="new    " width="144" height="45"/>
<rect x="47" y="21.5" fill="none" stroke="#000000" stroke-linecap="round" stroke-linejoin="round" stroke-miterlimit="10" width="144" height="45"/>
<rect x="190.5" y="66" opacity="0.177" fill="#507CB5" enable-background="new    " width="72" height="144"/>
<rect x="191" y="66.5" fill="none" stroke="#000000" stroke-linecap="round" stroke-linejoin="round" stroke-miterlimit="10" width="72" height="144"/>
<rect x="190.5" y="21" opacity="0.1802" fill="#49DE8F" enable-background="new    " width="72" height="45"/>
<rect x="191" y="21.5" fill="none" stroke="#000000" stroke-linecap="round" stroke-linejoin="round" stroke-miterlimit="10" width="72" height="45"/>
<line fill="none" stroke="#4BBD3B" stroke-width="2" stroke-linecap="round" stroke-linejoin="round" stroke-miterlimit="10" x1="46.5" y1="197.1" x2="46.5" y2="78.9"/>
<polygon fill="#4BBD3B" points="46.5,69.3 42.9,78.9 50.1,78.9 "/>
<polygon fill="none" stroke="#4BBD3B" stroke-width="2" stroke-miterlimit="10" points="46.5,69.3 42.9,78.9 50.1,78.9 "/>
<polygon fill="#4BBD3B" points="46.5,206.7 50.1,197.1 42.9,197.1 "/>
<polygon fill="none" stroke="#4BBD3B" stroke-width="2" stroke-miterlimit="10" points="46.5,206.7 50.1,197.1 42.9,197.1 "/>
<line fill="none" stroke="#507CB5" stroke-width="2" stroke-linecap="round" stroke-linejoin="round" stroke-miterlimit="10" x1="203.4" y1="210" x2="249.6" y2="210"/>
<polygon fill="#507CB5" points="259.2,210 249.6,206.4 249.6,213.6 "/>
<polygon fill="none" stroke="#507CB5" stroke-width="2" stroke-miterlimit="10" points="259.2,210 249.6,206.4 249.6,213.6 "/>
<polygon fill="#507CB5" points="193.8,210 203.4,213.6 203.4,206.4 "/>
<polygon fill="none" stroke="#507CB5" stroke-width="2" stroke-miterlimit="10" points="193.8,210 203.4,213.6 203.4,206.4 "/>
<line fill="none" stroke="#507CB5" stroke-width="2" stroke-linecap="round" stroke-linejoin="round" stroke-miterlimit="10" x1="59.4" y1="210" x2="177.6" y2="210"/>
<polygon fill="#507CB5" points="187.2,210 177.6,206.4 177.6,213.6 "/>
<polygon fill="none" stroke="#507CB5" stroke-width="2" stroke-miterlimit="10" points="187.2,210 177.6,206.4 177.6,213.6 "/>
<polygon fill="#507CB5" points="49.8,210 59.4,213.6 59.4,206.4 "/>
<polygon fill="none" stroke="#507CB5" stroke-width="2" stroke-miterlimit="10" points="49.8,210 59.4,213.6 59.4,206.4 "/>
<line fill="none" stroke="#4BBD3B" stroke-width="2" stroke-linecap="round" stroke-linejoin="round" stroke-miterlimit="10" x1="46.5" y1="53.1" x2="46.5" y2="33.9"/>
<polygon fill="#4BBD3B" points="46.5,24.3 42.9,33.9 50.1,33.9 "/>
<polygon fill="none" stroke="#4BBD3B" stroke-width="2" stroke-miterlimit="10" points="46.5,24.3 42.9,33.9 50.1,33.9 "/>
<polygon fill="#4BBD3B" points="46.5,62.7 50.1,53.1 42.9,53.1 "/>
<polygon fill="none" stroke="#4BBD3B" stroke-width="2" stroke-miterlimit="10" points="46.5,62.7 50.1,53.1 42.9,53.1 "/>
<g>
	<text transform="matrix(1 0 0 1 97.0747 143)" fill="#507CB5" font-family="'HelveticaNeue'" font-size="16">a</text>
</g>
<g>
	<text transform="matrix(1 0 0 1 105.6665 143)" font-family="'HelveticaNeue'" font-size="16"> </text>
</g>
<g>
	<text transform="matrix(1 0 0 1 126.1143 143)" font-family="'HelveticaNeue'" font-size="16"> </text>
</g>
<g>
	<text transform="matrix(1 0 0 1 130.5625 143)" fill="#4BBD3B" font-family="'HelveticaNeue'" font-size="16">b</text>
</g>
<path fill="#507CB5" d="M200.264,143l4.416-11.424h1.682L210.775,143H200.264z M202.312,141.721h6.305l-3.088-8.785h-0.032
	L202.312,141.721z"/>
<g>
	<text transform="matrix(1 0 0 1 210.6953 143)" fill="#507CB5" font-family="'HelveticaNeue'" font-size="16">a</text>
</g>
<g>
	<text transform="matrix(1 0 0 1 219.2881 143)" font-family="'HelveticaNeue'" font-size="16"> </text>
</g>
<g>
	<text transform="matrix(1 0 0 1 239.7363 143)" font-family="'HelveticaNeue'" font-size="16"> </text>
</g>
<g>
	<text transform="matrix(1 0 0 1 244.1836 143)" fill="#4BBD3B" font-family="'HelveticaNeue'" font-size="16">b</text>
</g>
<path fill="#507CB5" d="M195.08,47l4.416-11.424h1.68L205.592,47H195.08z M197.128,45.72h6.304l-3.088-8.784h-0.031L197.128,45.72z"
	/>
<g>
	<text transform="matrix(1 0 0 1 205.5117 47)" fill="#507CB5" font-family="'HelveticaNeue'" font-size="16">a</text>
</g>
<g>
	<text transform="matrix(1 0 0 1 214.1035 47)" font-family="'HelveticaNeue'" font-size="16"> </text>
</g>
<g>
	<text transform="matrix(1 0 0 1 234.5518 47)" font-family="'HelveticaNeue'" font-size="16"> </text>
</g>
<path fill="#4BBD3B" d="M238.936,47l4.416-11.424h1.682L249.448,47H238.936z M240.984,45.72h6.304l-3.088-8.784h-0.032
	L240.984,45.72z"/>
<g>
	<text transform="matrix(1 0 0 1 249.3682 47)" fill="#4BBD3B" font-family="'HelveticaNeue'" font-size="16">b</text>
</g>
<g>
	<text transform="matrix(1 0 0 1 92.3281 47)" fill="#507CB5" font-family="'HelveticaNeue'" font-size="16">a</text>
</g>
<g>
	<text transform="matrix(1 0 0 1 100.9199 47)" font-family="'HelveticaNeue'" font-size="16"> </text>
</g>
<g>
	<text transform="matrix(1 0 0 1 121.3682 47)" font-family="'HelveticaNeue'" font-size="16"> </text>
</g>
<path fill="#4BBD3B" d="M125.752,47l4.416-11.424h1.68L136.264,47H125.752z M127.8,45.72h6.304l-3.086-8.784h-0.032L127.8,45.72z"/>
<g>
	<text transform="matrix(1 0 0 1 136.1836 47)" fill="#4BBD3B" font-family="'HelveticaNeue'" font-size="16">b</text>
</g>
<path fill="#4BBD3B" d="M14.508,47.776l4.416-11.424h1.68l4.416,11.424H14.508z M16.556,46.496h6.304l-3.088-8.784H19.74
	L16.556,46.496z"/>
<g>
	<text transform="matrix(1 0 0 1 24.9399 47.7754)" fill="#4BBD3B" font-family="'HelveticaNeue'" font-size="16">b</text>
</g>
<g>
	<text transform="matrix(1 0 0 1 19.7559 140.7754)" fill="#4BBD3B" font-family="'HelveticaNeue'" font-size="16">b</text>
</g>
<g>
	<text transform="matrix(1 0 0 1 110.9419 233.7754)" fill="#507CB5" font-family="'HelveticaNeue'" font-size="16">a</text>
</g>
<g>
	<path fill="#507CB5" d="M217.456,233.775l4.416-11.424h1.68l4.416,11.424H217.456z M219.504,232.496h6.305l-3.088-8.784h-0.031
		L219.504,232.496z"/>
</g>
<g>
	<text transform="matrix(1 0 0 1 227.8887 233.7754)" fill="#507CB5" font-family="'HelveticaNeue'" font-size="16">a</text>
</g>
<g>
	<rect x="112.562" y="36.938" transform="matrix(-0.707 0.7073 -0.7073 -0.707 223.0766 -8.8646)" width="1.625" height="9.688"/>
	<rect x="112.563" y="36.938" transform="matrix(0.707 0.7073 -0.7073 0.707 62.7743 -67.942)" width="1.625" height="9.688"/>
</g>
<g>
	<rect x="225.198" y="36.929" transform="matrix(-0.7073 0.707 -0.707 -0.7073 415.3897 -88.4635)" width="1.625" height="9.688"/>
	<rect x="225.179" y="36.926" transform="matrix(0.7073 0.707 -0.707 0.7073 95.6871 -147.5384)" width="1.625" height="9.689"/>
</g>
<g>
	<rect x="230.434" y="132.687" transform="matrix(-0.7068 0.7074 -0.7074 -0.7068 491.9861 71.1548)" width="1.626" height="9.69"/>
	
		<rect x="230.433" y="132.672" transform="matrix(0.7068 0.7074 -0.7074 0.7068 165.0795 -123.2656)" width="1.625" height="9.688"/>
</g>
<g>
	<rect x="117.185" y="132.407" transform="matrix(-0.707 0.7073 -0.7073 -0.707 298.4889 150.8257)" width="1.627" height="9.688"/>
	<rect x="117.188" y="132.395" transform="matrix(0.7074 0.7068 -0.7068 0.7074 131.5279 -43.248)" width="1.625" height="9.689"/>
</g>
</svg>
